<svg xmlns="http://www.w3.org/2000/svg" viewBox="0 0 1852.96 287.27"><title>Recurso 5</title><g id="Capa_2" data-name="Capa 2"><g id="Capa_1-2" data-name="Capa 1"><path d="M251.22,136.79c.87-4.6,1.54-9.25,2.64-13.8a81.64,81.64,0,0,1,67.85-62A129.68,129.68,0,0,1,340,59.89c14.4,0,28.81.24,43.21.39.33,0,.66.08,1.69.22-3.23,7.59-6,15.1-9.58,22.22-2.16,4.32-6.9,5.57-11.42,5.83-7.66.45-15.35.41-23,.64-7.94.25-15.92.44-23.52,3.09-20.39,7.12-34,20.85-38.68,42.11-4.65,20.94,5,42.89,23.3,54.92,25.22,16.61,61.26,10.2,78.12-13.94,6.65-9.51,9.7-20.18,10-31.72.57-19.68,6.27-37.63,18.75-53.06C434,59.57,476.38,51.25,512,70.19a84.88,84.88,0,0,1,21.85,16.49c4,4.24,4.53,7.73,2.17,12.56-3.48,7.12-6.81,14.3-10.21,21.46-.29.6-.6,1.2-1.06,2.15-1.9-2.78-3.58-5.29-5.3-7.77-9.42-13.51-22-22.4-38.4-24.92-22.23-3.42-42.56,6.49-54.12,25.94-12.33,20.75-10.43,48.09,5.28,64.91,14.92,16,33.74,21.67,54.86,16.47s34.29-19.49,39.68-40.43c1.83-7.11,1.95-14.67,2.77-22,4.35-39.15,34.19-69.4,73.43-74.3a83.49,83.49,0,0,1,55,11.81c3.21,1.94,6.39,3.93,9.59,5.89.12.07.33,0,.75,0v-53l31.63-6.94v3c0,16,0,32-.19,48a8.2,8.2,0,0,1-2.29,5.49,98.79,98.79,0,0,0-30.24,47.18,4,4,0,0,1-.52.8c-1.54-2.61-3-5.17-4.51-7.65-9.25-14.68-21.92-24.4-39.39-27.21-30-4.84-54.25,12.76-61.61,40.56a80.48,80.48,0,0,0-2.58,18.07A83,83,0,0,1,491,225.93c-17.28,3.25-34.21,2.64-50.61-4.25-14.27-6-25.65-15.73-35.4-27.54l-1.58-1.92c-1.55,1.72-3.07,3.32-4.5,5a85.85,85.85,0,0,1-34.35,25c-47,18.44-102.46-8-112.06-61.84l-1.23-6.84Z"/><path d="M703.53,158.8c-.07,12.19,5,21.3,14.62,28,8.89,6.2,19,9.5,29.44,11.79,7.4,1.62,14.9,2.8,22.57,4.22v24.33c-22.06,3.55-59.69.54-85.29-33.37-4.16,3.75-8.39,7.64-12.71,11.42-26.27,23-56.06,28.81-89,17.48-13.67-4.7-24.7-13.56-33.78-24.77a3.18,3.18,0,0,1-.61-2.67c4.21-9.19,8.56-18.32,12.88-27.46.06-.14.26-.22.61-.5,1.82,2.84,3.59,5.69,5.43,8.48,9.29,14.07,21.94,23.11,38.93,25.07,17.52,2,32.74-3.39,45.54-15.44,12.26-11.56,17-26.13,17.93-42.73,1.15-20.74,8-39.58,22.12-55.3,12.42-13.83,28.18-21.67,46.18-25.43,46.22-9.66,88.84,22.94,99,62.19a66.79,66.79,0,0,1,2,26.2c-.72,5.12-3.06,7.32-8.18,8a55.85,55.85,0,0,1-7.31.48q-58.56,0-117.12,0Zm103.61-30.33a2.77,2.77,0,0,0,.1-.87,43.47,43.47,0,0,0-1.25-4.26c-6.68-17.41-19.51-28.17-37-33.49-23.27-7.07-48.19,2.48-60.22,22.79a37,37,0,0,0-5.43,15.83Z"/><path d="M1079.56,223.59h-8v-3.4c0-32.57.13-65.15-.1-97.73a108.87,108.87,0,0,0-2.19-21.54c-3.74-17.73-13.71-27-31.66-29.25-16.08-2-31.21.89-44.07,11.47-10.15,8.36-17.45,18.73-20.26,31.82a31.44,31.44,0,0,0-.57,6.5q-.06,49.26,0,98.52v3.54h-8v-3.36q0-51.75,0-103.5a66.91,66.91,0,0,0-3.24-21.38c-3.82-11.44-11.34-19.2-23.14-22.1-17.59-4.32-34.21-2.67-48.58,9.51-9.77,8.28-16.17,18.9-20.4,30.88a49.85,49.85,0,0,0-2.89,17.16c.16,29.87.07,59.74.07,89.61v3.21h-8V66.25h7.88v35.2l.6.21c.41-.84.81-1.68,1.23-2.52,8.41-17.15,21.09-29.48,40-34.27a61.54,61.54,0,0,1,38,2.45c13.58,5.26,20.74,15.89,24.14,29.52.22.85.43,1.69.6,2.34,2.7-4.23,5.06-8.85,8.26-12.79,12.21-15.07,28.28-22.54,47.56-23.22a63,63,0,0,1,23.24,3.06c14.67,5.12,22.75,16,26.7,30.57,2.29,8.41,2.89,17,2.9,25.67q.07,49.13,0,98.26Z"/><path d="M1253.21,146.12c.11,13.62-1.93,28-8.28,41.59-11.94,25.53-35.24,39.79-63.37,38.76-28.8-1.05-51.83-18.72-61.41-46.83-4.85-14.25-5.42-28.88-4.79-43.69.61-14.17,3.91-27.66,11.22-39.88,13.92-23.25,34.73-34,61.68-32.81,29.9,1.36,53.51,21.1,61.87,53.39C1252.53,125.93,1253.25,135.39,1253.21,146.12Zm-8.06-2a82.26,82.26,0,0,0-9.6-41.53c-16.39-30.33-48.4-37.62-74-27.13-16.49,6.76-26.56,19.9-33,36.07-4.8,12.06-5.6,24.73-5.4,37.57a83.69,83.69,0,0,0,8,35.18c12,25.23,36.69,38,64.22,33.25,18-3.12,30.6-13.65,39.57-29C1242.85,175,1245.22,160.15,1245.15,144.16Z"/><path d="M1291.28,66c2.07,0,3.9,0,5.73,0,.61,0,1.21.06,2.13.11v34.48l.55.14c.82-1.57,1.6-3.17,2.46-4.71,9.22-16.54,22.54-27.89,41.37-31.79a60.33,60.33,0,0,1,33.28,2.34c13.94,5.08,21.8,15.69,25.18,29.6a97.74,97.74,0,0,1,2.91,22c.3,34.15.13,68.3.13,102.45v2.94h-8v-3.28q0-51,0-101.93A70.6,70.6,0,0,0,1393.25,95c-4.8-13.78-14.76-21.08-29-23.17-29.58-4.36-48.39,11.92-59.1,33.51-1.47,3-2.55,6.11-3.72,9.21a39.32,39.32,0,0,0-2.38,14.34c.11,30.39.06,60.79.06,91.18v3.52h-7.88Z"/><path d="M1462.41,0c0,.87-.09,1.74-.09,2.62V149.45l8.73-8.13q39.65-36.76,79.26-73.56A5.91,5.91,0,0,1,1555,66c2.66.13,5.34,0,8.73,0l-72.38,67.15,38.4,45.14c12.7,14.94,25.39,29.89,38.53,45.36-3.68,0-6.7.13-9.69-.09-.83-.06-1.7-1.08-2.35-1.84q-24.39-28.59-48.73-57.23c-7.29-8.57-14.59-17.13-22.1-25.94-4.39,3.76-8.67,7.42-12.94,11.09a49.64,49.64,0,0,1-5.58,4.74c-3.87,2.43-4.68,5.73-4.63,10.11.24,18.6.1,37.2.1,55.81v3.21h-7.87c0-1.14-.16-2.32-.16-3.5q0-108.21,0-216.42c0-1.21-.16-2.42-.25-3.63Z"/><path d="M1588.41,139.53c-2.71,29.48,9.51,59,34.72,72.6,19.22,10.4,53.18,9.66,71.2-13.38.43-.55.92-1.05,1.52-1.73l5.6,3.94a56,56,0,0,1-33.21,23.33c-37.19,9.53-73-10.56-84-48.31-7.61-26.17-6.73-52.37,6-77.15,9.11-17.73,23.19-29.91,42.94-34.28,31.9-7.07,60.77,10.74,69.72,42.51,3,10.54,3.39,21.32,3.08,32.47Zm109.7-8a70.07,70.07,0,0,0-5.6-28.82c-15.42-35.31-53.52-38.55-76.21-22.38-14.72,10.5-22.92,25.25-26.49,42.74-.57,2.76-.89,5.56-1.34,8.46Z"/><path d="M1789,210.87l36.16-94.61c6.1-16,12.24-31.9,18.28-47.88.65-1.71,1.37-2.58,3.32-2.39s4,.05,6.24.05a13.63,13.63,0,0,1-.42,1.79q-36.49,95.64-73.06,191.25c-3.93,10.28-9.93,19.06-20.1,24.2-8.52,4.3-17.58,4.7-26.83,3.21-1.74-.28-2.88-.94-2.65-3.06a37.67,37.67,0,0,0,0-4.48c5.08,0,10,.3,15-.07,8.68-.65,15.47-4.95,20.68-11.85,5.39-7.13,8.44-15.4,11.45-23.69,2.23-6.14,4.61-12.23,6.72-18.42a6.87,6.87,0,0,0,0-4.39q-30.32-76-60.79-152c-.28-.72-.52-1.45-.92-2.53,2.74,0,5.25-.15,7.71.1.67.07,1.45,1.27,1.79,2.1q12.26,30.3,24.42,60.64,15.84,39.44,31.7,78.86C1788,208.61,1788.35,209.46,1789,210.87Z"/><path d="M86.92,150.83a28.37,28.37,0,0,1-2.89-.42,9.06,9.06,0,0,1-7-8.26,13.53,13.53,0,0,1,.25-4.83c1-3.9,3.63-6.08,7.51-6.82a12.86,12.86,0,0,1,5.69.14,8.34,8.34,0,0,1,5.25,3.89,11.05,11.05,0,0,1,.67,10.78,8.72,8.72,0,0,1-6.71,5.19C88.84,150.67,87.92,150.71,86.92,150.83Z"/><path d="M130.43,150.71a11.59,11.59,0,0,1-5.28-1.09,8.07,8.07,0,0,1-4.64-8.7,10.47,10.47,0,0,1,1.61-4.34c.73-1.1,1.54-2.17,2.35-3.22s1.64-2,2.44-3a.93.93,0,0,1,.9-.42,26.5,26.5,0,0,1,6.18,1.19c.34.12.67.25,1,.39a8.78,8.78,0,0,1,5.64,7.84,12.74,12.74,0,0,1-.4,4.43,9.31,9.31,0,0,1-8.63,6.94C131.21,150.73,130.82,150.71,130.43,150.71Z"/><path d="M127.61,166.34a2.38,2.38,0,0,1-.15.37,20.85,20.85,0,0,1-6.52,5.29,10.17,10.17,0,0,1-6,1.14,1.63,1.63,0,0,1-1.16-.61c-.54-.69-1.12-1.34-1.62-2.06a5.41,5.41,0,0,1-.67-1.39,2.11,2.11,0,0,1,1.16-2.83,8.25,8.25,0,0,1,2.89-.76,36.29,36.29,0,0,1,8.33.3C125.08,165.93,126.29,166.14,127.61,166.34Z"/><path d="M90.13,166.37c1.35-.22,2.49-.43,3.63-.58a31.21,31.21,0,0,1,7.84-.29,10.9,10.9,0,0,1,2.53.63,2.2,2.2,0,0,1,1.34,3,10,10,0,0,1-2.45,3.69,1.33,1.33,0,0,1-.7.28,7.3,7.3,0,0,1-3.82-.31,12.4,12.4,0,0,1-1.88-.78A20.55,20.55,0,0,1,90.13,166.37Z"/><path d="M217.57,132.64a34.33,34.33,0,0,0-5.91-17.56,41.73,41.73,0,0,0-12-11.89,17.48,17.48,0,0,1-6-6.68,18.81,18.81,0,0,1-1.25-3.25,90.85,90.85,0,0,0-14.68-29.19,87.59,87.59,0,0,0-19-18.25c-2-1.45-4.06-2.9-6.06-4.4A33.67,33.67,0,0,1,150,39.06a8,8,0,0,1-1.11-1.34,3.93,3.93,0,0,1-.49-3.8,12.43,12.43,0,0,1,1.38-2.66c1.55-2.11,3.2-4.16,4.82-6.22.34-.43.7-.85,1.14-1.38l-1.62-.4h-3.5c-.6.1-1.2.19-1.8.31-2.7.51-5.4,1.06-8.11,1.55a23.13,23.13,0,0,1-11-.3,15.09,15.09,0,0,1-2.72-1,1.82,1.82,0,0,0-1.81.05c-2.2,1-4.38,2.12-6.64,3a47.32,47.32,0,0,1-11.54,3c-1.19.14-2.4.17-3.59.24A86.83,86.83,0,0,0,25.89,88.52c-.71,2-1.3,4.08-1.92,6.12a16.57,16.57,0,0,1-6.33,9A43.41,43.41,0,0,0,5,117.1,34.72,34.72,0,0,0,.35,131a11.46,11.46,0,0,1-.35,1.4v5.06A11.47,11.47,0,0,1,.35,139a38.81,38.81,0,0,0,4.76,15.1A34.62,34.62,0,0,0,24.87,170a44.54,44.54,0,0,0,10.73,2.17c6.33.51,10.58,4,13.43,9.44a14.74,14.74,0,0,1,1.45,9.71A78.22,78.22,0,0,0,49,204.43a54.86,54.86,0,0,0,1,10.62A60,60,0,0,0,60.56,239.8a57.65,57.65,0,0,0,33.78,22.4A63,63,0,0,0,111.7,264a57,57,0,0,0,50.23-31.83,61.34,61.34,0,0,0,6.34-20.1,63.43,63.43,0,0,0-.83-21.85,14.73,14.73,0,0,1,11-17.55,25.89,25.89,0,0,1,3.94-.51A40.07,40.07,0,0,0,203,164.85a34.33,34.33,0,0,0,13.93-21.73c.35-1.67.43-3.4.65-5.1,0-.25.11-.49.16-.73v-3.7C217.68,133.27,217.59,133,217.57,132.64ZM31.91,165.4c-11.54-4.46-18.55-12.77-20.62-25-1.53-9,.86-17.09,6.65-24.15.2-.25.43-.48.76-.86,4.85,16.81,9.65,33.47,14.52,50.4C32.63,165.64,32.26,165.54,31.91,165.4Zm127.14,53.2c-.15.32-.3.64-.46,1a34,34,0,0,1-7.44,9.29,54.71,54.71,0,0,1-13.47,8.78,67.3,67.3,0,0,1-22.28,6.16,50.94,50.94,0,0,1-6.76.25,51,51,0,0,1-6.77-.25,67.25,67.25,0,0,1-22.27-6.16,54.58,54.58,0,0,1-13.48-8.78,33.75,33.75,0,0,1-7.43-9.29c-.17-.32-.32-.64-.47-1,0,0,0-.12.06-.26l.89.54a113.67,113.67,0,0,0,24.48,12.18,82.75,82.75,0,0,0,16.79,4,75.89,75.89,0,0,0,8.2.59,75.89,75.89,0,0,0,8.19-.59,83,83,0,0,0,16.8-4,113.9,113.9,0,0,0,24.48-12.18l.88-.54C159,218.48,159.07,218.56,159.05,218.6Zm3.76-51.38a53.81,53.81,0,0,1-12.54,4.9l-1,.28c.42,1.47.84,2.9,1.24,4.32,2.07,7.32,4.17,14.64,6.19,22a42,42,0,0,1,1.29,6.07,12.43,12.43,0,0,1-3.77,10.42,19.92,19.92,0,0,1-4.36,3.4,80.11,80.11,0,0,1-81.17.19,19.56,19.56,0,0,1-6.1-5.35,16.78,16.78,0,0,1-3-11.14,46.46,46.46,0,0,1,4.11-15.91c1.65-3.81,3.48-7.53,5.23-11.29.42-.91.83-1.82,1.3-2.83-.33-.18-.63-.35-.94-.5A84.19,84.19,0,0,1,51.6,159.92a54.1,54.1,0,0,1-12-14.71,39.84,39.84,0,0,1-5-20.74,44.35,44.35,0,0,1,4.06-16.7C44.82,94.29,54.93,85.28,69.08,81c11.54-3.49,22.74-2.14,33.54,3.06a54.71,54.71,0,0,1,7.29,4.27l.67.45c2.55-1.43,4.94-2.87,7.41-4.14a49.48,49.48,0,0,1,16.34-5.11,45.38,45.38,0,0,1,36.54,11A45.88,45.88,0,0,1,186,115.37,46.78,46.78,0,0,1,162.81,167.22Zm43.89-30.91a36.28,36.28,0,0,1-3.85,14.36,31.46,31.46,0,0,1-16.67,15c-.86.35-1.74.66-2.59,1l-.12-.13s0-.06,0-.08q7.43-26,14.86-51.94c0-.12.11-.23.22-.47a28.33,28.33,0,0,1,3.84,4.9A28.71,28.71,0,0,1,206.7,136.31Z"/></g></g></svg>